<svg width="137" height="48" viewBox="0 0 137 48" fill="none" xmlns="http://www.w3.org/2000/svg">
<path d="M0.25 0.199997H25.05V7.2H16.1V37H8.85V7.2H0.25V0.199997ZM24.1676 25.8C24.1676 23.5667 24.6842 21.5667 25.7176 19.8C26.7842 18.0333 28.2676 16.65 30.1676 15.65C32.0676 14.6167 34.2509 14.1 36.7176 14.1C39.2176 14.1 41.3842 14.6167 43.2176 15.65C45.0509 16.65 46.4509 18.0333 47.4176 19.8C48.4176 21.5667 48.9176 23.5667 48.9176 25.8C48.9176 28.0333 48.4176 30.05 47.4176 31.85C46.4509 33.6167 45.0509 35.0167 43.2176 36.05C41.3842 37.0833 39.1842 37.6 36.6176 37.6C34.2176 37.6 32.0676 37.1333 30.1676 36.2C28.3009 35.2667 26.8342 33.9167 25.7676 32.15C24.7009 30.3833 24.1676 28.2667 24.1676 25.8ZM31.2176 25.85C31.2176 26.9833 31.4509 28.0167 31.9176 28.95C32.3842 29.85 33.0176 30.5667 33.8176 31.1C34.6176 31.6333 35.5176 31.9 36.5176 31.9C37.6176 31.9 38.5676 31.6333 39.3676 31.1C40.1676 30.5667 40.7842 29.85 41.2176 28.95C41.6509 28.0167 41.8676 26.9833 41.8676 25.85C41.8676 24.6833 41.6509 23.65 41.2176 22.75C40.7842 21.85 40.1676 21.1333 39.3676 20.6C38.5676 20.0667 37.6176 19.8 36.5176 19.8C35.5176 19.8 34.6176 20.0667 33.8176 20.6C33.0176 21.1333 32.3842 21.85 31.9176 22.75C31.4509 23.65 31.2176 24.6833 31.2176 25.85ZM68.132 37.6C66.832 37.6 65.5487 37.3667 64.282 36.9C63.0487 36.4 62.0154 35.7 61.182 34.8L61.382 32.75V47.5H54.432V14.65H60.432L61.432 18.9L60.882 17.4C62.0154 16.4333 63.282 15.6333 64.682 15C66.082 14.3667 67.6987 14.05 69.532 14.05C71.5654 14.05 73.382 14.5333 74.982 15.5C76.582 16.4333 77.832 17.8 78.732 19.6C79.6654 21.3667 80.132 23.5 80.132 26C80.132 28.4667 79.6154 30.5667 78.582 32.3C77.5487 34.0333 76.132 35.35 74.332 36.25C72.532 37.15 70.4654 37.6 68.132 37.6ZM66.732 32.1C67.8654 32.1 68.8987 31.85 69.832 31.35C70.7987 30.85 71.5654 30.15 72.132 29.25C72.732 28.3167 73.032 27.2667 73.032 26.1C73.032 24.8667 72.7654 23.8 72.232 22.9C71.732 21.9667 71.032 21.25 70.132 20.75C69.2654 20.2167 68.2987 19.95 67.232 19.95C66.2987 19.95 65.4654 20.0833 64.732 20.35C64.032 20.5833 63.3987 20.95 62.832 21.45C62.2987 21.9167 61.832 22.5167 61.432 23.25V28.6C61.6987 29.3 62.082 29.9167 62.582 30.45C63.082 30.9833 63.682 31.4 64.382 31.7C65.1154 31.9667 65.8987 32.1 66.732 32.1ZM94.8332 37.6C92.7999 37.6 90.9499 37.2 89.2832 36.4C87.6499 35.5667 86.3499 34.3 85.3832 32.6C84.4165 30.9 83.9332 28.7333 83.9332 26.1C83.9332 23.6333 84.4332 21.5 85.4332 19.7C86.4332 17.9 87.7499 16.5167 89.3832 15.55C91.0165 14.55 92.7499 14.05 94.5832 14.05C96.7499 14.05 98.3832 14.4167 99.4832 15.15C100.617 15.85 101.55 16.6333 102.283 17.5L101.983 18.35L102.633 15.15H109.133V37H102.133V32.25L102.683 33.75C102.617 33.75 102.417 33.95 102.083 34.35C101.75 34.7167 101.25 35.1667 100.583 35.7C99.9499 36.2 99.1499 36.6333 98.1832 37C97.2499 37.4 96.1332 37.6 94.8332 37.6ZM96.8332 31.9C97.6665 31.9 98.4165 31.7833 99.0832 31.55C99.7499 31.2833 100.333 30.9167 100.833 30.45C101.333 29.95 101.767 29.3333 102.133 28.6V23.25C101.867 22.5167 101.467 21.9 100.933 21.4C100.4 20.8667 99.7665 20.4667 99.0332 20.2C98.2999 19.9 97.4832 19.75 96.5832 19.75C95.5832 19.75 94.6499 20.0167 93.7832 20.55C92.9499 21.05 92.2832 21.75 91.7832 22.65C91.2832 23.55 91.0332 24.5833 91.0332 25.75C91.0332 26.9167 91.2999 27.9667 91.8332 28.9C92.3665 29.8333 93.0665 30.5667 93.9332 31.1C94.8332 31.6333 95.7999 31.9 96.8332 31.9ZM119.746 20.85C118.546 20.85 117.496 20.4167 116.596 19.55C115.696 18.6833 115.246 17.5167 115.246 16.05V13.05H120.496V13.75C120.496 14.45 120.613 14.8667 120.846 15C121.113 15.1 121.563 15.15 122.196 15.15H136.046L123.946 32.75L122.646 31.3H135.896V37H113.746L126.196 18.85L127.246 20.85H119.746Z" fill="white"/>
</svg>
